<svg xmlns="http://www.w3.org/2000/svg" xmlns:xlink="http://www.w3.org/1999/xlink" width="3162.2823267876993" height="1230.1000370507593" viewBox="0 0 3162.2823267876993 1230.1000370507593"><rect fill="#2d567c" width="3162.2823267876993" height="1230.1000370507593"></rect><g transform="scale(8.114116339384957) translate(10, 10)"><defs id="SvgjsDefs1357"></defs><g id="SvgjsG1358" transform="matrix(1.148726653011672,0,0,1.148726653011672,-0.0018917765056720966,10.137703786295411)" fill="#ffffff"><path xmlns="http://www.w3.org/2000/svg" d="M2 70c-0.56 0-1.112-0.236-1.508-0.688-0.724-0.832-0.636-2.092 0.196-2.824l46-40c0.752-0.656 1.872-0.656 2.624 0l10.688 9.292v-7.78c0-1.104 0.9-2 2-2h12c1.1 0 2 0.9 2 2v21.7l19.312 16.792c0.832 0.728 0.92 1.992 0.196 2.828s-1.992 0.916-2.824 0.196l-20-17.392c-0.432-0.384-0.688-0.928-0.688-1.508v-20.616h-8v10.168c0 0.784-0.456 1.492-1.168 1.82-0.708 0.324-1.548 0.204-2.144-0.312l-12.688-11.028-44.688 38.86c-0.376 0.332-0.84 0.492-1.308 0.492z" fill="#FFFFFF"></path></g><g id="SvgjsG1359" transform="matrix(0.7,0,0,0.7,310.5,0)" fill="#ffffff"><rect xmlns="http://www.w3.org/2000/svg" y="0" height="1" width="1" opacity="0"></rect><rect xmlns="http://www.w3.org/2000/svg" y="0" x="-275" width="3" height="188"></rect></g><g id="SvgjsG1360" transform="matrix(1.3704111160100436,0,0,1.3704111160100436,126.21766369922419,3.3224987148183747)" fill="#ffffff"><path d="M15 11.440000000000001 c4.0532 0 7.24 1.2533 9.56 3.76 s3.48 5.96 3.48 10.36 c0 4.56 -1.1667 8.1068 -3.5 10.64 s-5.46 3.8 -9.38 3.8 l-12.4 0 l0 -28.56 l12.24 0 z M14.6 34.72 c2.2667 0 4.0268 -0.74668 5.28 -2.24 s1.88 -3.6133 1.88 -6.36 c0 -3.1467 -0.67332 -5.5 -2.02 -7.06 s-3.42 -2.34 -6.22 -2.34 l-4.48 0 l0 18 l5.56 0 z M42.175 11.440000000000001 l0 4.68 l-5.68 0 l0 -4.68 l5.68 0 z M42.175 19.32 l0 20.68 l-5.68 0 l0 -20.68 l5.68 0 z M82.845 11.440000000000001 c2.4 0 4.3936 0.74 5.98 2.22 s2.38 3.3667 2.38 5.66 c0 3.5733 -1.5067 5.96 -4.52 7.16 l0 0.08 c1.0133 0.29332 1.8066 0.78 2.38 1.46 s1.0066 1.4733 1.3 2.38 s0.48 2.36 0.56 4.36 c0.10668 2.6133 0.48 4.36 1.12 5.24 l-6.28 0 c-0.34668 -0.88 -0.61336 -2.5333 -0.80004 -4.96 c-0.21332 -2.56 -0.68 -4.2332 -1.4 -5.02 s-1.8933 -1.18 -3.52 -1.18 l-6.32 0 l0 11.16 l-6.28 0 l0 -28.56 l15.4 0 z M80.64500000000001 24.36 c1.3333 0 2.38 -0.3 3.14 -0.9 s1.14 -1.66 1.14 -3.18 c0 -1.44 -0.37332 -2.46 -1.12 -3.06 s-1.8134 -0.9 -3.2 -0.9 l-6.88 0 l0 8.04 l6.92 0 z M110.3 18.76 c3.3067 0 5.92 1.0067 7.84 3.02 s2.88 4.6468 2.88 7.9 c0 3.28 -0.98 5.9132 -2.94 7.9 s-4.5532 2.98 -7.78 2.98 c-3.28 0 -5.88 -1.0067 -7.8 -3.02 s-2.88 -4.6332 -2.88 -7.86 c0 -3.3333 0.98 -5.9868 2.94 -7.96 s4.54 -2.96 7.74 -2.96 z M105.3 29.68 c0 2.1067 0.42668 3.7333 1.28 4.88 s2.0933 1.72 3.72 1.72 c1.68 0 2.94 -0.58668 3.78 -1.76 s1.26 -2.7866 1.26 -4.84 c0 -2.1333 -0.43332 -3.7733 -1.3 -4.92 s-2.1267 -1.72 -3.78 -1.72 c-1.6 0 -2.8267 0.57332 -3.68 1.72 s-1.28 2.7867 -1.28 4.92 z M139.155 18.76 c2.8 0 5.08 0.71328 6.84 2.14 s2.72 3.3267 2.88 5.7 l-5.56 0 c-0.37332 -2.3733 -1.7733 -3.56 -4.2 -3.56 c-1.4933 0 -2.6733 0.61332 -3.54 1.84 s-1.3 2.8534 -1.3 4.88 c0 1.9467 0.41332 3.52 1.24 4.72 s1.9867 1.8 3.48 1.8 c2.5867 0 4.0932 -1.4 4.52 -4.2 l5.48 0 c-0.37332 2.7467 -1.4333 4.8468 -3.18 6.3 s-4.0068 2.18 -6.78 2.18 c-3.0667 0 -5.5732 -0.98 -7.52 -2.94 s-2.92 -4.5132 -2.92 -7.66 c0 -3.4133 0.96 -6.1332 2.88 -8.16 s4.48 -3.04 7.68 -3.04 z M162.93 11.440000000000001 l0 15.32 l7.16 -7.44 l6.72 0 l-7.8 7.6 l8.68 13.08 l-6.88 0 l-5.68 -9.24 l-2.2 2.12 l0 7.12 l-5.68 0 l0 -28.56 l5.68 0 z"></path></g><g id="SvgjsG1361" transform="matrix(0.7991533175183252,0,0,0.7991533175183252,153.24879507367285,74.62064018582294)" fill="#ffffff"><path d="M8.56 5.48 q3.14 0 5 1.86 l-1.26 1.32 q-0.74 -0.78 -1.75 -1.2 t-2.11 -0.42 q-2.44 0 -4.05 1.68 t-1.65 4.2 q0.02 2.62 1.66 4.23 t4.2 1.65 q1.84 0 3.52 -0.82 l0 -4.34 l-3.26 0 l0 -1.56 l4.94 0 l0 6.96 q-2.44 1.32 -5.3 1.32 q-3.34 0 -5.43 -2.09 t-2.13 -5.35 q0.02 -3.26 2.16 -5.32 t5.46 -2.12 z M26.22 5.84 l0 1.56 l-7.22 0 l0 4.44 l6.74 0 l0 1.56 l-6.74 0 l0 5.04 l7.58 0 l0 1.56 l-9.26 0 l0 -14.16 l8.9 0 z M31.3 5.84 l8.2 11.76 l0.04 0 l0 -11.76 l1.68 0 l0 14.16 l-2.12 0 l-8.2 -11.76 l-0.04 0 l0 11.76 l-1.68 0 l0 -14.16 l2.12 0 z M53.64 5.84 l0 1.56 l-7.22 0 l0 4.44 l6.74 0 l0 1.56 l-6.74 0 l0 5.04 l7.58 0 l0 1.56 l-9.26 0 l0 -14.16 l8.9 0 z M60.46 5.84 q2.78 0 4.09 0.92 t1.31 2.96 q0 1.5 -0.89 2.47 t-2.65 1.29 l4.02 6.52 l-2.06 0 l-3.84 -6.36 l-2.16 0 l0 6.36 l-1.68 0 l0 -14.16 l3.86 0 z M60.28 12.08 q1.98 0 2.88 -0.55 t0.9 -1.79 q0 -1.2 -0.81 -1.77 t-2.51 -0.57 l-2.46 0 l0 4.68 l2 0 z M75 5.84 l6.02 14.16 l-1.96 0 l-1.44 -3.48 l-7.08 0 l-1.46 3.48 l-1.9 0 l6.24 -14.16 l1.58 0 z M74.14 8 l-2.94 6.96 l5.78 0 l-2.8 -6.96 l-0.04 0 z M84.58 5.84 l0 12.6 l6.48 0 l0 1.56 l-8.16 0 l0 -14.16 l1.68 0 z M104.84 5.48 q1.66 0 2.94 0.59 t2.06 1.63 l-1.46 1.06 q-0.64 -0.86 -1.58 -1.29 t-1.96 -0.43 q-2.26 0 -3.81 1.72 t-1.59 4.16 q0 2.52 1.54 4.19 t3.86 1.69 q2.54 0 4.1 -1.98 l1.26 1.06 q-1.86 2.48 -5.36 2.48 q-3.1 0 -5.13 -2.14 t-2.07 -5.3 q0 -3.16 2.05 -5.28 t5.15 -2.16 z M119.12 5.48 q3.2 0 5.28 2.1 t2.12 5.34 q-0.02 3.3 -2.14 5.36 t-5.26 2.08 q-3.2 0 -5.28 -2.11 t-2.12 -5.33 q0 -3.2 2.08 -5.3 t5.32 -2.14 z M113.52 12.92 q0 2.54 1.6 4.19 t4 1.69 q2.4 0 3.98 -1.68 t1.62 -4.2 q0 -2.46 -1.56 -4.15 t-4.06 -1.73 q-2.44 0.02 -3.99 1.71 t-1.59 4.17 z M131.34 5.84 l8.2 11.76 l0.04 0 l0 -11.76 l1.68 0 l0 14.16 l-2.12 0 l-8.2 -11.76 l-0.04 0 l0 11.76 l-1.68 0 l0 -14.16 l2.12 0 z M154.28 5.84 l0 1.56 l-4.68 0 l0 12.6 l-1.68 0 l0 -12.6 l-4.68 0 l0 -1.56 l11.04 0 z M160.12 5.84 q2.78 0 4.09 0.92 t1.31 2.96 q0 1.5 -0.89 2.47 t-2.65 1.29 l4.02 6.52 l-2.06 0 l-3.84 -6.36 l-2.16 0 l0 6.36 l-1.68 0 l0 -14.16 l3.86 0 z M159.94 12.08 q1.98 0 2.88 -0.55 t0.9 -1.79 q0 -1.2 -0.81 -1.77 t-2.51 -0.57 l-2.46 0 l0 4.68 l2 0 z M174.66 5.84 l6.02 14.16 l-1.96 0 l-1.44 -3.48 l-7.08 0 l-1.46 3.48 l-1.9 0 l6.24 -14.16 l1.58 0 z M173.8 8 l-2.94 6.96 l5.78 0 l-2.8 -6.96 l-0.04 0 z M188.94 5.48 q1.66 0 2.94 0.59 t2.06 1.63 l-1.46 1.06 q-0.64 -0.86 -1.58 -1.29 t-1.96 -0.43 q-2.26 0 -3.81 1.72 t-1.59 4.16 q0 2.52 1.54 4.19 t3.86 1.69 q2.54 0 4.1 -1.98 l1.26 1.06 q-1.86 2.48 -5.36 2.48 q-3.1 0 -5.13 -2.14 t-2.07 -5.3 q0 -3.16 2.05 -5.28 t5.15 -2.16 z M206.14000000000001 5.84 l0 1.56 l-4.68 0 l0 12.6 l-1.68 0 l0 -12.6 l-4.68 0 l0 -1.56 l11.04 0 z M209.8 5.84 l0 14.16 l-1.68 0 l0 -14.16 l1.68 0 z M215.44 5.84 l8.2 11.76 l0.04 0 l0 -11.76 l1.68 0 l0 14.16 l-2.12 0 l-8.2 -11.76 l-0.04 0 l0 11.76 l-1.68 0 l0 -14.16 l2.12 0 z M235.68 5.48 q3.14 0 5 1.86 l-1.26 1.32 q-0.74 -0.78 -1.75 -1.2 t-2.11 -0.42 q-2.44 0 -4.05 1.68 t-1.65 4.2 q0.02 2.62 1.66 4.23 t4.2 1.65 q1.84 0 3.52 -0.82 l0 -4.34 l-3.26 0 l0 -1.56 l4.94 0 l0 6.96 q-2.44 1.32 -5.3 1.32 q-3.34 0 -5.43 -2.09 t-2.13 -5.35 q0.02 -3.26 2.16 -5.32 t5.46 -2.12 z"></path></g><g id="SvgjsG1362" transform="matrix(0.7991533175183252,0,0,0.7991533175183252,205.0410169335364,96.62064018582294)" fill="#ffffff"><path d="M6.3 5.58 q1.64 0 2.59 0.88 t0.95 2.26 q0 1.08 -0.74 1.95 t-2.26 1.65 l3 3.18 l1.9 -3.18 l1.9 0 l-2.72 4.36 l3.24 3.32 l-2.3 0 l-1.92 -2.04 q-0.96 1.22 -1.98 1.75 t-2.26 0.53 q-1.96 0 -3.23 -1.16 t-1.27 -2.88 q0.02 -2.62 3.14 -4.1 q-0.94 -0.94 -1.32 -1.71 t-0.38 -1.57 q0 -1.46 1.05 -2.35 t2.61 -0.89 z M4.32 8.92 q0 0.54 0.35 1.08 t1.13 1.3 q1.3 -0.66 1.83 -1.25 t0.53 -1.37 q0 -0.74 -0.51 -1.2 t-1.31 -0.46 q-0.86 0 -1.44 0.53 t-0.58 1.37 z M2.88 16.14 q0 1.08 0.82 1.87 t1.94 0.79 q0.86 0 1.62 -0.44 t1.66 -1.52 l-3.54 -3.72 q-1.38 0.76 -1.94 1.45 t-0.56 1.57 z M25.62 5.84 q2.78 0 4.09 0.92 t1.31 2.96 q0 1.5 -0.89 2.47 t-2.65 1.29 l4.02 6.52 l-2.06 0 l-3.84 -6.36 l-2.16 0 l0 6.36 l-1.68 0 l0 -14.16 l3.86 0 z M25.44 12.08 q1.98 0 2.88 -0.55 t0.9 -1.79 q0 -1.2 -0.81 -1.77 t-2.51 -0.57 l-2.46 0 l0 4.68 l2 0 z M40.56 5.48 q3.2 0 5.28 2.1 t2.12 5.34 q-0.02 3.3 -2.14 5.36 t-5.26 2.08 q-3.2 0 -5.28 -2.11 t-2.12 -5.33 q0 -3.2 2.08 -5.3 t5.32 -2.14 z M34.96 12.92 q0 2.54 1.6 4.19 t4 1.69 q2.4 0 3.98 -1.68 t1.62 -4.2 q0 -2.46 -1.56 -4.15 t-4.06 -1.73 q-2.44 0.02 -3.99 1.71 t-1.59 4.17 z M57.239999999999995 5.48 q3.2 0 5.28 2.1 t2.12 5.34 q-0.02 3.3 -2.14 5.36 t-5.26 2.08 q-3.2 0 -5.28 -2.11 t-2.12 -5.33 q0 -3.2 2.08 -5.3 t5.32 -2.14 z M51.64 12.92 q0 2.54 1.6 4.19 t4 1.69 q2.4 0 3.98 -1.68 t1.62 -4.2 q0 -2.46 -1.56 -4.15 t-4.06 -1.73 q-2.44 0.02 -3.99 1.71 t-1.59 4.17 z M76.12 5.84 l0 1.56 l-7.1 0 l0 4.68 l6.6 0 l0 1.56 l-6.6 0 l0 6.36 l-1.68 0 l0 -14.16 l8.78 0 z M80.14 5.84 l0 14.16 l-1.68 0 l0 -14.16 l1.68 0 z M85.78 5.84 l8.2 11.76 l0.04 0 l0 -11.76 l1.68 0 l0 14.16 l-2.12 0 l-8.2 -11.76 l-0.04 0 l0 11.76 l-1.68 0 l0 -14.16 l2.12 0 z M106.02000000000001 5.48 q3.14 0 5 1.86 l-1.26 1.32 q-0.74 -0.78 -1.75 -1.2 t-2.11 -0.42 q-2.44 0 -4.05 1.68 t-1.65 4.2 q0.02 2.62 1.66 4.23 t4.2 1.65 q1.84 0 3.52 -0.82 l0 -4.34 l-3.26 0 l0 -1.56 l4.94 0 l0 6.96 q-2.44 1.32 -5.3 1.32 q-3.34 0 -5.43 -2.09 t-2.13 -5.35 q0.02 -3.26 2.16 -5.32 t5.46 -2.12 z"></path></g></g></svg>